<?xml version="1.0" standalone="no"?>
<!DOCTYPE svg PUBLIC "-//W3C//DTD SVG 20010904//EN"
 "http://www.w3.org/TR/2001/REC-SVG-20010904/DTD/svg10.dtd">
<svg version="1.0" xmlns="http://www.w3.org/2000/svg"
 width="500.000000pt" height="500.000000pt" viewBox="0 0 500.000000 500.000000"
 preserveAspectRatio="xMidYMid meet">
<metadata>
Created by potrace 1.11, written by Peter Selinger 2001-2013
</metadata>
<g transform="translate(0.000000,500.000000) scale(0.100000,-0.100000)"
fill="#000000" stroke="none">
<path d="M2260 4739 c-30 -4 -75 -10 -100 -13 -173 -21 -436 -101 -628 -192
-366 -174 -703 -471 -924 -814 -181 -281 -288 -573 -343 -935 -11 -71 -14
-458 -5 -525 6 -36 12 -81 14 -100 39 -285 165 -618 334 -880 130 -202 332
-422 512 -558 52 -40 100 -76 105 -80 24 -19 235 -140 295 -169 137 -66 369
-149 470 -167 14 -2 48 -9 75 -15 133 -29 265 -39 470 -36 205 4 238 6 300 18
17 4 44 9 60 12 240 39 476 123 715 256 86 48 193 119 198 131 2 4 8 8 14 8 6
0 25 12 42 27 18 16 52 44 76 63 82 65 201 183 283 283 87 104 229 309 220
317 -2 3 -157 5 -344 5 l-339 0 -87 -84 c-164 -157 -334 -267 -558 -361 -61
-26 -178 -60 -272 -80 -440 -93 -902 -2 -1281 251 -115 78 -143 101 -257 214
-321 319 -497 756 -489 1215 1 63 4 131 7 150 3 19 9 58 12 85 26 190 114 428
227 613 92 151 268 352 383 437 22 17 42 33 45 36 3 3 39 27 80 54 679 441
1539 356 2117 -209 l72 -71 345 0 345 0 -26 45 c-154 264 -425 542 -703 722
-254 164 -546 278 -840 327 -36 6 -81 13 -100 17 -54 10 -458 12 -520 3z"/>
<path d="M2204 3368 c-2 -4 -20 -51 -40 -105 -50 -137 -94 -317 -110 -448 -3
-22 -7 -51 -11 -65 -3 -14 -6 -106 -8 -205 -4 -280 29 -507 112 -755 24 -74
48 -141 53 -149 7 -14 51 -16 317 -17 169 0 311 1 315 3 4 2 -8 29 -26 61 -95
169 -169 391 -193 580 l-5 42 779 0 c429 0 782 -2 785 -5 3 -3 2 -23 -2 -43
-5 -20 -16 -74 -25 -120 -14 -74 -51 -203 -74 -257 -4 -11 -33 -72 -64 -135
-32 -64 -57 -118 -57 -120 0 -3 140 -5 311 -5 l311 0 13 25 c39 75 112 332
134 470 6 36 13 81 17 100 14 78 13 455 -1 559 -8 58 -17 112 -19 120 -3 9 -8
34 -11 56 -3 22 -12 65 -21 95 -8 30 -21 78 -29 106 -8 28 -29 89 -47 135
l-33 84 -315 0 -315 0 60 -120 c84 -168 145 -363 161 -515 l6 -55 -719 2
c-395 1 -746 2 -781 3 l-63 0 6 53 c3 28 11 70 17 92 6 22 11 47 12 55 5 38
50 181 84 260 20 50 93 193 104 208 6 6 9 13 7 13 -16 6 -632 3 -635 -3z"/>
</g>
</svg>
